<?xml version="1.0" encoding="utf-8"?>
<!-- Generator: Adobe Illustrator 23.0.6, SVG Export Plug-In . SVG Version: 6.00 Build 0)  -->
<svg version="1.1" id="Layer_1" xmlns="http://www.w3.org/2000/svg" xmlns:xlink="http://www.w3.org/1999/xlink" x="0px" y="0px"
	 viewBox="0 0 240 240" style="enable-background:new 0 0 240 240;" xml:space="preserve">
<style type="text/css">
	.st0{fill:#FFFFFF;}
	.st1{fill:#F37C20;}
	.st2{fill:#2173B9;}
</style>
<circle class="st0" cx="120" cy="120" r="120"/>
<g>
	<path class="st1" d="M132.36,78.01h-16.48c-1.55-4.57-5.18-8.35-10.11-9.83c-8.15-2.46-16.8,2.15-19.28,10.28
		c-1.2,3.95-0.8,8.13,1.14,11.78c1.94,3.64,5.18,6.32,9.13,7.52c1.5,0.46,3.02,0.68,4.54,0.68c2.52,0,5.02-0.62,7.3-1.85
		c3.48-1.87,6.05-4.93,7.29-8.65h16.46c6.92,0,12.66,5.63,12.79,12.55c0.06,3.32-1.24,6.51-3.66,8.98c-2.53,2.58-6.03,4.06-9.6,4.06
		h-20.14c-8.51,0-15.44,6.93-15.44,15.44v33.46c-4.55,1.55-8.32,5.17-9.82,10.09c-2.49,8.15,2.12,16.81,10.28,19.3
		c1.5,0.46,3.02,0.68,4.54,0.68c2.52,0,5.02-0.62,7.3-1.85c3.64-1.95,6.29-5.2,7.46-9.14c2.39-8.02-2.01-16.47-9.83-19.11v-33.44
		c0-3.04,2.48-5.52,5.52-5.52h20.14c6.21,0,12.29-2.56,16.68-7.03c4.3-4.38,6.61-10.11,6.5-16.12
		C154.85,88.01,144.66,78.01,132.36,78.01z M106.56,84.61c-0.41,1.39-1.35,2.54-2.64,3.23c-1.31,0.71-2.83,0.86-4.26,0.42
		c-1.41-0.43-2.58-1.39-3.27-2.69c-0.69-1.31-0.84-2.8-0.41-4.22c0.73-2.38,2.93-3.91,5.32-3.91c0.53,0,1.08,0.08,1.61,0.24
		C105.85,78.56,107.46,81.61,106.56,84.61z M106.56,178.67c-0.41,1.39-1.35,2.54-2.64,3.23c-1.32,0.71-2.83,0.85-4.26,0.42
		c-2.92-0.89-4.57-3.99-3.68-6.91c0.73-2.38,2.93-3.91,5.32-3.91c0.53,0,1.08,0.08,1.61,0.24
		C105.85,172.62,107.46,175.67,106.56,178.67z"/>
	<path class="st2" d="M181.05,162.23c-3.92-1.18-7.95-0.71-11.37,0.98l-11.19-11.19c-1.12-1.12-1.67-2.66-1.51-4.24
		c0.09-0.88,0.49-2.51,2.15-3.61c14.58-9.64,23.34-25.82,23.44-43.27c0.08-13.71-5.33-26.74-15.21-36.68
		c-9.99-10.05-23.76-15.81-37.78-15.81h-45.7c-14.34,0-26.01,11.67-26.01,26.01v87.99c-4.55,1.55-8.32,5.17-9.82,10.09
		c-2.49,8.15,2.12,16.81,10.28,19.3c1.5,0.46,3.02,0.68,4.54,0.68c2.52,0,5.02-0.62,7.3-1.85c3.64-1.95,6.29-5.2,7.46-9.14
		c2.39-8.02-2.01-16.47-9.84-19.11V74.43c0-8.87,7.22-16.09,16.09-16.09h45.7c11.4,0,22.6,4.7,30.75,12.89
		c8.01,8.05,12.38,18.57,12.32,29.62c-0.08,14.14-7.18,27.24-18.99,35.05c-3.71,2.46-6.1,6.42-6.55,10.89
		c-0.46,4.55,1.13,9.02,4.36,12.25l11.21,11.21c-0.35,0.72-0.67,1.47-0.91,2.27c-2.49,8.15,2.12,16.81,10.28,19.3
		c1.5,0.46,3.02,0.68,4.54,0.68c2.52,0,5.02-0.62,7.3-1.85c3.64-1.95,6.29-5.2,7.46-9.14C193.79,173.33,189.17,164.68,181.05,162.23
		z M68.12,178.67c-0.41,1.39-1.35,2.54-2.64,3.23c-1.32,0.71-2.83,0.85-4.26,0.42c-2.92-0.89-4.57-3.99-3.68-6.91
		c0.68-2.24,2.68-3.71,4.9-3.88c0.13,0.01,0.26,0.04,0.39,0.04c0.15,0,0.29-0.03,0.43-0.04c0.4,0.03,0.8,0.09,1.2,0.21
		C67.41,172.62,69.01,175.67,68.12,178.67z M181.84,178.67c-0.41,1.39-1.35,2.54-2.64,3.23c-1.32,0.71-2.83,0.85-4.26,0.42
		c-2.92-0.89-4.57-3.99-3.68-6.91c0.73-2.38,2.93-3.91,5.32-3.91c0.53,0,1.08,0.08,1.61,0.24
		C181.13,172.62,182.73,175.67,181.84,178.67z"/>
</g>
</svg>
